<?xml version="1.0" encoding="utf-8"?>
<!-- Svg Vector Icons : http://www.onlinewebfonts.com/icon -->
<!DOCTYPE svg PUBLIC "-//W3C//DTD SVG 1.1//EN" "http://www.w3.org/Graphics/SVG/1.1/DTD/svg11.dtd">
<svg version="1.1" xmlns="http://www.w3.org/2000/svg" xmlns:xlink="http://www.w3.org/1999/xlink" x="0px" y="0px" viewBox="0 0 1000 1000" enable-background="new 0 0 1000 1000" xml:space="preserve">
<metadata> Svg Vector Icons : http://www.onlinewebfonts.com/icon </metadata>
<g><g transform="translate(0.000000,511.000000) scale(0.100000,-0.100000)"><path d="M8590.6,4983.1c-85.1-47-7427.9-6532.2-7492.8-6615c-85.1-112-82.9-228.4,4.5-324.7l64.9-73.9l1755.7-11.2c1746.7-11.2,1753.4-11.2,1843-60.5c120.9-65,136.6-80.6,1283.1-1422c557.6-649.4,1034.6-1195.8,1063.7-1216c147.8-96.3,320.2-49.3,394.1,107.5c29.1,65,94,425.5,201.5,1135.4c87.3,573.3,365,2391.6,618,4042c649.4,4232.3,638.2,4158.5,638.2,4227.9c0,138.8-98.5,239.6-235.1,237.4C8680.2,5010,8617.5,4998.8,8590.6,4983.1z M7907.6,76.7c-374-2434.2-685.2-4422.7-694.2-4418.2c-8.9,2.3-479.2,544.2-1043.5,1204.8C5603.4-2476.2,5104-1907.4,5061.5-1876c-44.8,33.6-134.4,82.9-199.3,109.7c-116.4,49.3-138.8,49.3-1728.8,60.5l-1607.9,11.2l2906.7,2564c1598.9,1410.8,3182.1,2808.1,3522.5,3106c338.1,300.1,618,539.7,622.5,535.2C8581.7,4506.1,8279.4,2510.9,7907.6,76.7z"/><path d="M8030.8,3630.5c-24.6-22.4-698.7-1162.2-1495.9-2534.9C5242.8-1128.1,5086.1-1405.8,5104-1457.3c15.7-42.5,38.1-60.5,91.8-64.9c62.7-6.7,78.4,4.5,125.4,78.4c271,434.4,2870.8,4937.7,2877.6,4987C8216.7,3650.7,8113.7,3704.4,8030.8,3630.5z"/></g></g>
</svg>