<?xml version="1.0" encoding="utf-8"?>
<!-- Svg Vector Icons : http://www.onlinewebfonts.com/icon -->
<!DOCTYPE svg PUBLIC "-//W3C//DTD SVG 1.1//EN" "http://www.w3.org/Graphics/SVG/1.1/DTD/svg11.dtd">
<svg version="1.1" xmlns="http://www.w3.org/2000/svg" xmlns:xlink="http://www.w3.org/1999/xlink" x="0px" fill="white"
    y="0px" viewBox="0 0 1000 1000" enable-background="new 0 0 1000 1000" xml:space="preserve">
    <metadata> Svg Vector Icons : http://www.onlinewebfonts.com/icon </metadata>
    <g>
        <g transform="translate(0.000000,512.000000) scale(0.100000,-0.100000)">
            <path
                d="M6266.1,4996.9c-448.9-95.9-836.5-487.3-930.5-938.2c-182.3-871,587.1-1640.3,1458.1-1458.1c456.6,95.9,844.1,483.5,940.1,940.1C7916,4415.6,7140.9,5184.9,6266.1,4996.9z M6793.6,4354.2c120.8-57.6,235.9-172.7,297.4-295.5c67.1-138.1,67.1-379.9,0-518c-59.5-122.8-174.6-237.9-297.4-297.4c-138.2-67.1-379.9-67.1-518,0c-498.8,243.7-456.6,949.7,67.1,1139.6C6463.6,4427.1,6668.9,4413.7,6793.6,4354.2z" />
            <path
                d="M4798.4,1706.7L4395.5,899V732.1c0-136.2,7.7-182.3,46-259c63.3-126.6,174.6-234.1,307-297.4c149.6-69.1,370.3-71,510.3-1.9c191.8,94,224.5,143.9,652.3,997.6c216.8,435.5,393.3,792.3,389.4,796.2c-3.8,1.9-90.2,23-191.9,46.1c-291.6,67.1-669.5,270.5-838.4,450.8c-26.9,26.9-51.8,49.9-59.5,49.9C5205.1,2514.4,5019,2151.8,4798.4,1706.7z" />
            <path
                d="M558.5,1326.9c-166.9-42.2-320.4-166.9-406.7-333.8c-48-90.2-51.8-119-51.8-282c1.9-172.7,34.5-308.9,610.1-2599.6c335.7-1329.5,629.3-2463.4,656.1-2520.9c69.1-155.4,165-260.9,291.6-322.3l109.4-53.7h3232.7h3232.7l88.3,40.3c122.8,57.6,241.7,180.3,305,320.4c36.5,78.7,264.7,955.4,663.8,2545.8c569.8,2265.8,610.1,2438.4,610.1,2599.6c1.9,151.6-3.9,184.2-51.8,272.4c-65.2,126.6-161.2,222.5-287.8,289.7l-99.7,51.8l-1390.9,5.8l-1390.9,3.8l-331.9-663.8c-328.1-652.3-335.7-667.6-472-803.9c-76.7-76.7-166.9-153.5-199.5-170.7l-61.4-32.6v-391.4v-393.3h-613.9h-613.9v393.3v391.4l-84.4,57.5C3912-0.8,3708.7,492.3,3796.9,956.6c17.3,88.3,53.7,207.2,80.6,266.7c26.9,57.6,48,109.4,48,113.2C3925.5,1349.9,616.1,1340.3,558.5,1326.9z M3158.1-497.6v-613.9h-688.7h-688.7l-153.5,613.9l-153.5,613.9h842.2h842.2V-497.6z M8370.6-497.6l-155.4-613.9h-686.8h-686.8v613.9v613.9h842.2H8526L8370.6-497.6z M3158.1-2953.3v-613.9h-379.9h-377.9l-149.6,600.5c-82.5,328.1-147.7,604.3-147.7,613.9c0,7.7,237.9,13.4,527.6,13.4h527.6V-2953.3z M5613.8-2953.3v-613.9h-613.9h-613.9v613.9v613.9h613.9h613.9V-2953.3z M7896.8-2352.8c0-9.6-65.2-285.8-147.7-613.9l-149.6-600.5h-378h-379.8v613.9v613.9h527.6C7658.9-2339.4,7896.8-2345.2,7896.8-2352.8z" />
        </g>
    </g>
</svg>