<?xml version="1.0" encoding="utf-8"?>
<!-- Svg Vector Icons : http://www.onlinewebfonts.com/icon -->
<!DOCTYPE svg PUBLIC "-//W3C//DTD SVG 1.1//EN" "http://www.w3.org/Graphics/SVG/1.1/DTD/svg11.dtd">
<svg version="1.1" xmlns="http://www.w3.org/2000/svg" xmlns:xlink="http://www.w3.org/1999/xlink" x="0px" y="0px" viewBox="0 0 1000 1000" enable-background="new 0 0 1000 1000" xml:space="preserve">
<metadata> Svg Vector Icons : http://www.onlinewebfonts.com/icon </metadata>
<g><path d="M10,425c0,0,21.2-107.6,136.6-121.9H262c0,0,45.1-19.7,37.9-43l6-117c0,0,8.4-121.5,125.6-134h149.6c0,0,97.4,14.3,118.4,140.9l0.6,110.1c0,0,0,35.9-46.9,34.6c0,0-56.7,10.3-53.1-25.6l-0.8-122.1c0,0-5.6-31.3-39.9-42H448.8c0,0-34.4,1-48.4,34.1L399,285.1c0,0-36.1,102.2-120.8,113l-119-0.4c0,0-57.7,11.2-52.3,48.8l-1.8,107.6c0,0,12.6,43,39.7,43l115.4,0.4c0,0,31.5,10.3,35.1,31.9l-1.3,43c0,0-24.8,25.4-44.6,23.3l-118.5,0.8c0,0-100.1-32.9-120.9-126.2V425z"/><path d="M521.6,326.2c0,0-106-25.2-166.6,77.5c0,0-37.2,41.5-29.9,106.4c0,0,9,72.1,21.6,75.7c12.6,3.6,18.9-23.4,75.3-18c0,0,25.7-18,31.1-46.9c0,0-10.3-6.6-5.4-22.5c0,0,63.1,0,73.9-49.6C521.6,448.8,545,394.7,521.6,326.2z"/><path d="M598.4,352.7c0,0,5.3,52.9-10.1,66.9c0,0-0.4,21.1,2.6,22.8c0,0,28.5,37.7,32,44.3c0,0-16.7,16.7-27.2,14.7l3.9,20.4c0,0-0.9,24.6-11.4,23.3c0,0-2.6,16.7,2.2,18.9c0,0,7,17.5-9.7,31.1h-67.1c0,0-59.7,40.8-58.8,74.1c0,0,25.9,4.4,89.1,3.9c0,0,127.2-51.8,127.7-139.9C671.6,533.3,692.3,401.2,598.4,352.7z"/><path d="M990,570.5c0,0-20.8,108.3-136.1,123.1l-115.4,0.5c0,0-45,20-37.7,43.4l-5.6,117.6c0,0-7.9,122.2-125,135.3L420.6,991c0,0-97.4-14-118.9-141.2l-1.1-110.7c0,0-0.1-36.1,46.7-34.9c0,0,56.7-10.6,53.2,25.5l1.3,122.8c0,0,5.7,31.4,40,42.1l110.7-0.4c0,0,34.4-1.1,48.3-34.4l0.7-147c0,0,35.6-102.9,120.3-114.1l119,0c0,0,57.6-11.5,52.1-49.3l1.4-108.2c0,0-12.8-43.2-39.8-43.1l-115.4,0c0,0-31.5-10.3-35.2-31.9l1.1-43.3c0,0,24.7-25.6,44.5-23.6L868,298c0,0,100.3,32.7,121.4,126.4L990,570.5z"/></g>
</svg>