<?xml version="1.0" encoding="utf-8"?>
<!-- Svg Vector Icons : http://www.onlinewebfonts.com/icon -->
<!DOCTYPE svg PUBLIC "-//W3C//DTD SVG 1.1//EN" "http://www.w3.org/Graphics/SVG/1.1/DTD/svg11.dtd">
<svg version="1.1" xmlns="http://www.w3.org/2000/svg" xmlns:xlink="http://www.w3.org/1999/xlink" x="0px" y="0px" viewBox="0 0 1000 1000" enable-background="new 0 0 1000 1000" xml:space="preserve">
<metadata> Svg Vector Icons : http://www.onlinewebfonts.com/icon </metadata>
<g><g transform="translate(0.000000,511.000000) scale(0.100000,-0.100000)"><path d="M5600,4002.1l-4068.7-974l-102.3,75.5c-155.8,112-340.9,172.9-533.2,172.9c-301.9,0-557.6-177.7-711-496.7c-129-272.7-119.3-418.8,87.7-1098.1C1020-780,2894.9-2942.2,5249.4-4059.8c715.9-338.5,1787.2-698.8,2081.8-698.8c228.9,0,518.6,133.9,674.4,311.7c245.9,280,255.7,676.9,21.9,1000.8c-41.4,53.5-73,112-73,126.6c0,14.6,435.8,1814,966.7,3998.1c530.8,2186.5,971.5,4020,976.4,4076c7.3,85.2,0,112-53.6,163.1c-34.1,36.5-85.2,63.3-116.9,60.9C9695.5,4978.5,7840.1,4537.8,5600,4002.1z M9439.9,4496.4c0-9.7-343.3-1436.6-764.6-3170.2c-421.2-1733.6-832.7-3435.6-917.9-3783.8c-82.8-348.2-155.8-637.9-160.7-645.2c-14.6-17.1-431,95-762.1,207C4592-2138.7,2775.6-349.1,1989.1,1876.4c-80.3,226.4-248.4,796.2-236.2,805.9c2.4,2.4,1577.8,379.8,3498.9,837.6c1921.1,457.8,3642.6,869.3,3822.8,915.5C9449.6,4528,9439.9,4525.6,9439.9,4496.4z M1107.7,2660.5c34.1-34.1,85.2-170.4,136.4-360.4c543-1964.9,1753.1-3645,3435.6-4765.1c793.8-530.8,1512.1-862,2434.9-1127.3c474.8-136.4,540.5-177.8,511.3-336c-24.4-133.9-65.8-204.5-141.2-241c-56-26.8-99.8-24.4-323.8,29.2c-141.2,36.5-433.4,121.7-650.1,194.8c-2778.2,932.6-4945.3,3199.4-5736.6,6002C640.2,2526.6,645,2611.8,803.3,2680C925.1,2733.5,1046.8,2726.2,1107.7,2660.5z"/><path d="M8453.7,3851.1c-168-73-277.6-284.9-233.7-445.6c26.8-92.5,136.3-219.1,238.6-272.7c99.8-51.1,260.5-31.7,365.2,43.8c175.3,126.6,221.6,316.5,124.2,494.3C8845.7,3848.7,8629.1,3929,8453.7,3851.1z M8704.5,3502.9c4.9-58.4-4.9-82.8-43.8-104.7c-70.6-36.5-143.7-9.7-160.7,63.3c-21.9,82.8,29.2,136.3,121.7,126.6C8687.5,3580.9,8697.2,3571.1,8704.5,3502.9z"/><path d="M6712.8,3488.3c-221.6-63.3-443.2-255.7-543-474.8c-75.5-165.6-73-435.9,7.3-601.4c250.8-513.8,891.2-633.1,1285.6-236.2c321.4,321.4,314.1,798.7-19.5,1110.3C7236.3,3478.6,6956.3,3556.5,6712.8,3488.3z M7146.2,3164.5c360.4-180.2,353.1-711-12.2-896c-90.1-43.8-333.6-51.1-438.3-12.2c-158.3,58.4-297.1,265.4-299.5,445.6C6393.8,3108.5,6781,3347.1,7146.2,3164.5z"/><path d="M4509.2,2621.5c-138.8-82.8-207-187.5-207-316.5c0-289.8,306.8-477.2,547.8-338.4c204.5,119.3,260.5,362.8,124.2,543C4852.5,2667.8,4657.7,2714,4509.2,2621.5z M4752.7,2290.4c0-58.4-12.2-75.5-58.4-80.3c-70.6-12.2-124.2,48.7-107.1,119.3c9.7,39,31.7,46.3,90.1,41.4C4743,2363.4,4752.7,2353.7,4752.7,2290.4z"/><path d="M3023.9,2329.3c-175.3-43.8-370.1-211.8-440.7-382.3c-75.5-177.7-17-443.1,131.5-603.8c97.4-102.3,287.3-185,433.4-185c304.4,0,591.7,282.4,594.1,584.4c0,241.1-202.1,499.2-448,572.2C3162.7,2353.7,3135.9,2356.1,3023.9,2329.3z M3325.9,2005.5c151-92.5,165.6-365.2,29.2-487c-63.3-58.4-97.4-68.2-211.8-68.2c-121.7,0-143.7,7.3-219.1,82.8c-70.6,70.6-82.8,99.8-82.8,194.8c0,221.6,126.6,343.3,333.6,319C3233.3,2042,3299.1,2022.5,3325.9,2005.5z"/><path d="M6518,1136.2c-177.7-58.4-357.9-209.4-443.2-377.4c-211.8-413.9,133.9-949.6,613.6-949.6c379.8,0,713.4,360.4,674.5,728c-24.3,228.9-172.9,440.7-387.2,550.3C6863.8,1143.5,6620.3,1170.3,6518,1136.2z M6880.8,822.1c121.7-60.9,180.2-153.4,192.3-306.8c19.5-250.8-131.5-413.9-389.6-416.4c-151,0-228.9,41.4-321.4,168c-73,97.4-70.6,338.4,2.5,443.2C6471.7,858.7,6710.4,912.2,6880.8,822.1z"/><path d="M4599.3,508c-165.6-80.3-277.6-280-238.6-428.5c46.3-187.5,272.7-350.6,438.3-319c131.5,24.3,238.6,104.7,301.9,228.9c70.6,138.8,60.9,265.4-36.5,384.7C4930.4,537.2,4760,588.4,4599.3,508z M4833.1,228c17-17,29.2-51.1,29.2-80.3c0-29.2-12.2-63.3-29.2-80.4c-17-17.1-51.1-29.2-80.3-29.2s-63.3,12.2-80.3,29.2c-17.1,17.1-29.2,51.1-29.2,80.4c0,29.2,12.2,63.3,29.2,80.3c17,17.1,51.1,29.2,80.3,29.2S4816,245.1,4833.1,228z"/><path d="M6257.5-1544.6c-180.2-41.4-275.1-168-275.1-365.2c0-182.6,114.4-323.8,289.7-353.1c129.1-21.9,270.3,21.9,355.5,109.6c60.9,63.3,73,97.4,80.4,226.4c4.9,119.3-2.4,168-41.4,228.9C6588.6-1573.8,6415.7-1508.1,6257.5-1544.6z M6420.6-1848.9c34.1-41.4,12.2-124.2-41.4-143.7c-41.4-17-129,46.3-129,95C6250.2-1819.7,6367-1785.6,6420.6-1848.9z"/></g></g>
</svg>